<svg width="72" height="89" viewBox="0 0 72 89" fill="none" xmlns="http://www.w3.org/2000/svg">
<g opacity="0.5" filter="url(#filter0_f_9223_8197)">
<path fill-rule="evenodd" clip-rule="evenodd" d="M36.3117 5.50071C31.5525 5.50071 27.2601 6.35155 23.4264 8.04391C19.5881 9.73828 16.288 12.1571 13.5217 15.3034C10.792 18.4481 8.6768 22.2746 7.18218 26.7927C5.72371 31.2728 4.9907 36.3027 4.9907 41.8878V47.2178C4.9907 52.8044 5.70652 57.8358 7.13083 62.3172C8.55536 66.7993 10.618 70.6075 13.3125 73.7516C16.0425 76.8959 19.3235 79.3138 23.1604 81.0079C26.9933 82.6652 31.339 83.4993 36.2062 83.4993C42.4451 83.4993 47.7467 82.3839 52.1291 80.1754L52.1305 80.1747C56.5568 77.9616 59.9854 74.8915 62.4312 70.9644L62.4328 70.9617C64.8302 67.1658 66.2199 62.8341 66.5944 57.9558H51.8152C51.5654 60.9 50.8772 63.4053 49.7318 65.4543C48.556 67.621 46.8434 69.2585 44.6066 70.3586C42.3707 71.4582 39.5621 71.9931 36.2062 71.9931C33.3322 71.9931 30.8406 71.4722 28.7495 70.4083L28.7401 70.4035C26.6868 69.3035 25.0056 67.6917 23.6963 65.5823L23.691 65.5738C22.4244 63.4386 21.493 60.8493 20.8867 57.8174L20.8864 57.8164C20.2805 54.7512 19.9798 51.217 19.9798 47.2178V41.7823C19.9798 37.677 20.2982 34.0879 20.9403 31.0199L20.9412 31.0156C21.6192 27.9113 22.6416 25.3159 24.0217 23.2457C25.4023 21.1749 27.1196 19.6177 29.1748 18.5901C31.2269 17.5641 33.6107 17.0597 36.3117 17.0597C39.8738 17.0597 42.7774 17.6281 44.9863 18.8049C47.2279 19.9453 48.9053 21.6605 50.0073 23.9375C51.044 26.0463 51.661 28.578 51.8735 31.5191L66.6821 31.5191C66.1466 26.6021 64.7086 22.2139 62.3747 18.3463L62.3731 18.3435C59.9955 14.3465 56.6359 11.2079 52.2805 8.92652L52.279 8.92575C47.9711 6.65118 42.656 5.50071 36.3117 5.50071ZM23.0222 7.12843C26.9987 5.37304 31.4313 4.5 36.3117 4.5C42.7732 4.5 48.2586 5.67142 52.7459 8.04062C57.2551 10.4028 60.7552 13.6667 63.2324 17.8307C65.737 21.9817 67.2352 26.6987 67.7341 31.9724L67.7859 32.5198L50.9317 32.5198L50.9049 32.0479C50.7317 28.9999 50.1269 26.4483 49.1084 24.3773L49.107 24.3744C48.0989 22.2909 46.5764 20.7355 44.5285 19.6948L44.5197 19.6903C42.5074 18.6171 39.7835 18.0604 36.3117 18.0604C33.7356 18.0604 31.5106 18.5411 29.6224 19.4852C27.7373 20.4277 26.1476 21.8609 24.8544 23.8008C23.5611 25.7407 22.5783 28.2107 21.9194 31.2269C21.2953 34.2096 20.9805 37.7263 20.9805 41.7823V47.2178C20.9805 51.1694 21.2779 54.6362 21.8681 57.6221C22.4575 60.5686 23.3546 63.0437 24.5493 65.0589C25.7716 67.0268 27.3246 68.5088 29.2081 69.5188C31.1268 70.4939 33.4535 70.9924 36.2062 70.9924C39.4643 70.9924 42.1087 70.4719 44.165 69.4606C46.2192 68.4503 47.778 66.9577 48.8537 64.9744L48.8569 64.9687C49.9725 62.9741 50.6449 60.4651 50.8525 57.4214L50.8842 56.9551L67.6623 56.9551L67.6298 57.486C67.3086 62.7332 65.8613 67.4068 63.2798 71.4948C60.7302 75.5879 57.1584 78.7793 52.5795 81.0691C48.0259 83.3638 42.5621 84.5 36.2062 84.5C31.2232 84.5 26.7388 83.6456 22.7619 81.9259L22.7584 81.9243C18.7863 80.1709 15.384 77.6641 12.556 74.4066L12.5539 74.4042C9.76083 71.1456 7.63726 67.2144 6.17714 62.6203C4.7166 58.025 3.98999 52.8891 3.98999 47.2178V41.8878C3.98999 36.2154 4.73447 31.0783 6.23098 26.4819L6.23172 26.4796C7.76247 21.8518 9.93886 17.904 12.7671 14.6462L12.7691 14.6439C15.6317 11.3877 19.0508 8.88161 23.0222 7.12843Z" fill="#1FE2D0"/>
</g>
<g filter="url(#filter1_i_9223_8197)">
<path fill-rule="evenodd" clip-rule="evenodd" d="M36.3117 5.50071C31.5525 5.50071 27.2601 6.35155 23.4264 8.04391C19.5881 9.73828 16.288 12.1571 13.5217 15.3034C10.792 18.4481 8.6768 22.2746 7.18218 26.7927C5.72371 31.2728 4.9907 36.3027 4.9907 41.8878V47.2178C4.9907 52.8044 5.70652 57.8358 7.13083 62.3172C8.55536 66.7993 10.618 70.6075 13.3125 73.7516C16.0425 76.8959 19.3235 79.3138 23.1604 81.0079C26.9933 82.6652 31.339 83.4993 36.2062 83.4993C42.4451 83.4993 47.7467 82.3839 52.1291 80.1754L52.1305 80.1747C56.5568 77.9616 59.9854 74.8914 62.4312 70.9644L62.4328 70.9617C64.8302 67.1658 66.2199 62.8341 66.5944 57.9558H51.8152C51.5654 60.9 50.8772 63.4053 49.7318 65.4543C48.556 67.621 46.8434 69.2585 44.6066 70.3586C42.3707 71.4582 39.5621 71.9931 36.2062 71.9931C33.3322 71.9931 30.8406 71.4722 28.7495 70.4083L28.7401 70.4035C26.6868 69.3035 25.0056 67.6917 23.6963 65.5823L23.691 65.5738C22.4244 63.4386 21.493 60.8493 20.8867 57.8174L20.8864 57.8164C20.2805 54.7512 19.9798 51.217 19.9798 47.2178V41.7823C19.9798 37.677 20.2982 34.0879 20.9403 31.0199L20.9412 31.0156C21.6192 27.9113 22.6416 25.3159 24.0217 23.2457C25.4023 21.1749 27.1196 19.6177 29.1748 18.5901C31.2269 17.5641 33.6107 17.0597 36.3117 17.0597C39.8738 17.0597 42.7774 17.6281 44.9863 18.8049C47.2279 19.9453 48.9053 21.6605 50.0073 23.9375C51.044 26.0463 51.661 28.578 51.8735 31.5191L66.6821 31.5191C66.1466 26.6021 64.7086 22.2139 62.3747 18.3463L62.3731 18.3435C59.9955 14.3465 56.6359 11.2079 52.2805 8.92652L52.279 8.92575C47.9711 6.65118 42.656 5.50071 36.3117 5.50071ZM23.0222 7.12843C26.9987 5.37304 31.4313 4.5 36.3117 4.5C42.7732 4.5 48.2586 5.67142 52.7459 8.04062C57.2551 10.4028 60.7552 13.6667 63.2324 17.8307C65.737 21.9817 67.2352 26.6987 67.7341 31.9724L67.7859 32.5198L50.9317 32.5198L50.9049 32.0479C50.7317 28.9999 50.1269 26.4483 49.1084 24.3773L49.107 24.3744C48.0989 22.2909 46.5764 20.7355 44.5285 19.6948L44.5197 19.6903C42.5074 18.6171 39.7835 18.0604 36.3117 18.0604C33.7356 18.0604 31.5106 18.5411 29.6224 19.4852C27.7373 20.4277 26.1476 21.8609 24.8544 23.8008C23.5611 25.7407 22.5783 28.2107 21.9194 31.2269C21.2953 34.2096 20.9805 37.7263 20.9805 41.7823V47.2178C20.9805 51.1694 21.2779 54.6362 21.8681 57.6221C22.4575 60.5686 23.3546 63.0437 24.5493 65.0589C25.7716 67.0268 27.3246 68.5087 29.2081 69.5188C31.1268 70.4939 33.4535 70.9924 36.2062 70.9924C39.4643 70.9924 42.1087 70.4719 44.165 69.4606C46.2192 68.4503 47.778 66.9577 48.8537 64.9744L48.8569 64.9687C49.9725 62.9741 50.6449 60.4651 50.8525 57.4214L50.8842 56.9551L67.6623 56.9551L67.6298 57.486C67.3086 62.7332 65.8613 67.4068 63.2798 71.4948C60.7302 75.5879 57.1584 78.7793 52.5795 81.0691C48.0259 83.3638 42.5621 84.5 36.2062 84.5C31.2232 84.5 26.7388 83.6456 22.7619 81.9259L22.7584 81.9243C18.7863 80.1709 15.384 77.6641 12.556 74.4066L12.5539 74.4042C9.76083 71.1456 7.63726 67.2144 6.17714 62.6203C4.7166 58.025 3.98999 52.8891 3.98999 47.2178V41.8878C3.98999 36.2154 4.73447 31.0783 6.23098 26.4819L6.23172 26.4796C7.76247 21.8518 9.93886 17.904 12.7671 14.6462L12.7691 14.6439C15.6317 11.3877 19.0508 8.88161 23.0222 7.12843Z" fill="#1FE2D0"/>
</g>
<defs>
<filter id="filter0_f_9223_8197" x="-0.0100098" y="0.5" width="71.7959" height="88" filterUnits="userSpaceOnUse" color-interpolation-filters="sRGB">
<feFlood flood-opacity="0" result="BackgroundImageFix"/>
<feBlend mode="normal" in="SourceGraphic" in2="BackgroundImageFix" result="shape"/>
<feGaussianBlur stdDeviation="2" result="effect1_foregroundBlur_9223_8197"/>
</filter>
<filter id="filter1_i_9223_8197" x="3.98999" y="4.5" width="63.7959" height="84" filterUnits="userSpaceOnUse" color-interpolation-filters="sRGB">
<feFlood flood-opacity="0" result="BackgroundImageFix"/>
<feBlend mode="normal" in="SourceGraphic" in2="BackgroundImageFix" result="shape"/>
<feColorMatrix in="SourceAlpha" type="matrix" values="0 0 0 0 0 0 0 0 0 0 0 0 0 0 0 0 0 0 127 0" result="hardAlpha"/>
<feOffset dy="4"/>
<feGaussianBlur stdDeviation="2"/>
<feComposite in2="hardAlpha" operator="arithmetic" k2="-1" k3="1"/>
<feColorMatrix type="matrix" values="0 0 0 0 1 0 0 0 0 1 0 0 0 0 1 0 0 0 0.25 0"/>
<feBlend mode="normal" in2="shape" result="effect1_innerShadow_9223_8197"/>
</filter>
</defs>
</svg>
