<svg width="157" height="89" viewBox="0 0 157 89" fill="none" xmlns="http://www.w3.org/2000/svg">
<g filter="url(#filter0_f_9223_8244)">
<path d="M39.392 83.9811L11.0506 76.1137L4.7099 5H74.1595L67.8104 76.1021L39.392 83.9811Z" stroke="#FFB2D6"/>
</g>
<g filter="url(#filter1_f_9223_8244)">
<path d="M62.3113 71.5184L39.9357 77.7216V10.8877H67.7233L62.3113 71.5184Z" stroke="#FFB2D6"/>
</g>
<g filter="url(#filter2_f_9223_8244)">
<path d="M18.0022 21.5428L17.8393 19.7158H38.9356V27.5472H26.9442H26.3976L26.4461 28.0916L27.2518 37.1345L27.2924 37.5901H27.7499H38.9356V45.4215H20.1301L18.0022 21.5429L18.0022 21.5428Z" stroke="#FFB2D6"/>
</g>
<g filter="url(#filter3_f_9223_8244)">
<path d="M21.7725 63.8157L20.6147 50.842H28.4765L29.0644 57.4293L29.0954 57.7767L29.4321 57.8676L38.9367 60.4329V68.5811L21.7725 63.8157Z" stroke="#FFB2D6"/>
</g>
<g filter="url(#filter4_f_9223_8244)">
<path d="M50.2787 45.4215H39.9044V37.5901H59.3851L59.2179 39.4159L59.2178 39.4171L57.1435 62.6657L57.1435 62.6662L57.0425 63.8123L39.9044 68.564V60.416L49.3861 57.8586L49.7228 57.7677L49.7539 57.4203L50.7767 45.966L50.8253 45.4215H50.2787Z" stroke="#FFB2D6"/>
</g>
<g filter="url(#filter5_f_9223_8244)">
<path d="M60.2785 27.5472H39.9044V19.7158H60.9807L60.8179 21.5424L60.8178 21.5428L60.415 26.0196L60.415 26.0199L60.2785 27.5472Z" stroke="#FFB2D6"/>
</g>
<g filter="url(#filter6_i_9223_8244)">
<path d="M39.392 83.9811L11.0506 76.1137L4.7099 5H74.1595L67.8104 76.1021L39.392 83.9811Z" stroke="#FFB2D6"/>
</g>
<g filter="url(#filter7_i_9223_8244)">
<path d="M62.3113 71.5184L39.9357 77.7216V10.8877H67.7233L62.3113 71.5184Z" stroke="#FFB2D6"/>
</g>
<g filter="url(#filter8_i_9223_8244)">
<path d="M18.0022 21.5428L17.8393 19.7158H38.9356V27.5472H26.9442H26.3976L26.4461 28.0916L27.2518 37.1345L27.2924 37.5901H27.7499H38.9356V45.4215H20.1301L18.0022 21.5429L18.0022 21.5428Z" stroke="#FFB2D6"/>
</g>
<g filter="url(#filter9_i_9223_8244)">
<path d="M21.7725 63.8157L20.6147 50.842H28.4765L29.0644 57.4293L29.0954 57.7767L29.4321 57.8676L38.9367 60.4329V68.5811L21.7725 63.8157Z" stroke="#FFB2D6"/>
</g>
<g filter="url(#filter10_i_9223_8244)">
<path d="M50.2787 45.4215H39.9044V37.5901H59.3851L59.2179 39.4159L59.2178 39.4171L57.1435 62.6657L57.1435 62.6662L57.0425 63.8123L39.9044 68.564V60.416L49.3861 57.8586L49.7228 57.7677L49.7539 57.4203L50.7767 45.966L50.8253 45.4215H50.2787Z" stroke="#FFB2D6"/>
</g>
<g filter="url(#filter11_i_9223_8244)">
<path d="M60.2785 27.5472H39.9044V19.7158H60.9807L60.8179 21.5424L60.8178 21.5428L60.415 26.0196L60.415 26.0199L60.2785 27.5472Z" stroke="#FFB2D6"/>
</g>
<g filter="url(#filter12_f_9223_8244)">
<path d="M117.551 83.9811L89.2094 76.1137L82.8715 5H152.315L145.969 76.1021L117.551 83.9811Z" stroke="#FFB2D6"/>
</g>
<g filter="url(#filter13_f_9223_8244)">
<path d="M140.47 71.5184L118.094 77.7216V10.8877H145.882L140.47 71.5184Z" stroke="#FFB2D6"/>
</g>
<g filter="url(#filter14_f_9223_8244)">
<path d="M136.9 44.8068H118.094V36.9754H129.28H129.737L129.778 36.5197L130.584 27.4769L130.632 26.9325H130.086H118.094V19.1011H139.19L139.028 20.9252L139.028 20.9253L136.9 44.8068Z" stroke="#FFB2D6"/>
</g>
<g filter="url(#filter15_f_9223_8244)">
<path d="M99.9847 63.1948L98.8269 50.2183H106.689L107.277 56.8056L107.308 57.1529L107.644 57.2438L117.149 59.8119V67.961L99.9847 63.1948Z" stroke="#FFB2D6"/>
</g>
<g filter="url(#filter16_f_9223_8244)">
<path d="M127.595 57.2386L127.932 57.1478L127.963 56.8007L128.985 45.4302H136.841L135.356 62.0482L135.356 62.0485L135.252 63.195L118.117 67.9442V59.796L127.595 57.2386Z" stroke="#FFB2D6"/>
</g>
<g filter="url(#filter17_f_9223_8244)">
<path d="M96.6158 25.4024L96.6158 25.402L96.213 20.9252L96.213 20.9248L96.0502 19.1011H117.126V26.9325H96.7524L96.6158 25.4024Z" stroke="#FFB2D6"/>
</g>
<g filter="url(#filter18_f_9223_8244)">
<path d="M108.204 43.2764L108.204 43.2763L107.804 38.7992L107.804 38.7992L107.641 36.9751H117.094V44.8065H108.34L108.204 43.2764Z" stroke="#FFB2D6"/>
</g>
<g filter="url(#filter19_i_9223_8244)">
<path d="M117.551 83.9811L89.2094 76.1137L82.8715 5H152.315L145.969 76.1021L117.551 83.9811Z" stroke="#FFB2D6"/>
</g>
<g filter="url(#filter20_i_9223_8244)">
<path d="M140.47 71.5184L118.094 77.7216V10.8877H145.882L140.47 71.5184Z" stroke="#FFB2D6"/>
</g>
<g filter="url(#filter21_i_9223_8244)">
<path d="M136.9 44.8068H118.094V36.9754H129.28H129.737L129.778 36.5197L130.584 27.4769L130.632 26.9325H130.086H118.094V19.1011H139.19L139.028 20.9252L139.028 20.9253L136.9 44.8068Z" stroke="#FFB2D6"/>
</g>
<g filter="url(#filter22_i_9223_8244)">
<path d="M99.9847 63.1948L98.8269 50.2183H106.689L107.277 56.8056L107.308 57.1529L107.644 57.2438L117.149 59.8119V67.961L99.9847 63.1948Z" stroke="#FFB2D6"/>
</g>
<g filter="url(#filter23_i_9223_8244)">
<path d="M127.595 57.2386L127.932 57.1478L127.963 56.8007L128.985 45.4302H136.841L135.356 62.0482L135.356 62.0485L135.252 63.195L118.117 67.9442V59.796L127.595 57.2386Z" stroke="#FFB2D6"/>
</g>
<g filter="url(#filter24_i_9223_8244)">
<path d="M96.6158 25.4024L96.6158 25.402L96.213 20.9252L96.213 20.9248L96.0502 19.1011H117.126V26.9325H96.7524L96.6158 25.4024Z" stroke="#FFB2D6"/>
</g>
<g filter="url(#filter25_i_9223_8244)">
<path d="M108.204 43.2764L108.204 43.2763L107.804 38.7992L107.804 38.7992L107.641 36.9751H117.094V44.8065H108.34L108.204 43.2764Z" stroke="#FFB2D6"/>
</g>
<defs>
<filter id="filter0_f_9223_8244" x="0.16333" y="0.5" width="78.5428" height="88" filterUnits="userSpaceOnUse" color-interpolation-filters="sRGB">
<feFlood flood-opacity="0" result="BackgroundImageFix"/>
<feBlend mode="normal" in="SourceGraphic" in2="BackgroundImageFix" result="shape"/>
<feGaussianBlur stdDeviation="2" result="effect1_foregroundBlur_9223_8244"/>
</filter>
<filter id="filter1_f_9223_8244" x="35.4357" y="6.3877" width="36.8342" height="75.9914" filterUnits="userSpaceOnUse" color-interpolation-filters="sRGB">
<feFlood flood-opacity="0" result="BackgroundImageFix"/>
<feBlend mode="normal" in="SourceGraphic" in2="BackgroundImageFix" result="shape"/>
<feGaussianBlur stdDeviation="2" result="effect1_foregroundBlur_9223_8244"/>
</filter>
<filter id="filter2_f_9223_8244" x="13.2927" y="15.2158" width="30.1428" height="34.7057" filterUnits="userSpaceOnUse" color-interpolation-filters="sRGB">
<feFlood flood-opacity="0" result="BackgroundImageFix"/>
<feBlend mode="normal" in="SourceGraphic" in2="BackgroundImageFix" result="shape"/>
<feGaussianBlur stdDeviation="2" result="effect1_foregroundBlur_9223_8244"/>
</filter>
<filter id="filter3_f_9223_8244" x="16.0681" y="46.342" width="27.3685" height="26.8857" filterUnits="userSpaceOnUse" color-interpolation-filters="sRGB">
<feFlood flood-opacity="0" result="BackgroundImageFix"/>
<feBlend mode="normal" in="SourceGraphic" in2="BackgroundImageFix" result="shape"/>
<feGaussianBlur stdDeviation="2" result="effect1_foregroundBlur_9223_8244"/>
</filter>
<filter id="filter4_f_9223_8244" x="35.4044" y="33.0901" width="28.5286" height="40.1314" filterUnits="userSpaceOnUse" color-interpolation-filters="sRGB">
<feFlood flood-opacity="0" result="BackgroundImageFix"/>
<feBlend mode="normal" in="SourceGraphic" in2="BackgroundImageFix" result="shape"/>
<feGaussianBlur stdDeviation="2" result="effect1_foregroundBlur_9223_8244"/>
</filter>
<filter id="filter5_f_9223_8244" x="35.4044" y="15.2158" width="30.1228" height="16.8314" filterUnits="userSpaceOnUse" color-interpolation-filters="sRGB">
<feFlood flood-opacity="0" result="BackgroundImageFix"/>
<feBlend mode="normal" in="SourceGraphic" in2="BackgroundImageFix" result="shape"/>
<feGaussianBlur stdDeviation="2" result="effect1_foregroundBlur_9223_8244"/>
</filter>
<filter id="filter6_i_9223_8244" x="4.16333" y="4.5" width="70.5428" height="84" filterUnits="userSpaceOnUse" color-interpolation-filters="sRGB">
<feFlood flood-opacity="0" result="BackgroundImageFix"/>
<feBlend mode="normal" in="SourceGraphic" in2="BackgroundImageFix" result="shape"/>
<feColorMatrix in="SourceAlpha" type="matrix" values="0 0 0 0 0 0 0 0 0 0 0 0 0 0 0 0 0 0 127 0" result="hardAlpha"/>
<feOffset dy="4"/>
<feGaussianBlur stdDeviation="2"/>
<feComposite in2="hardAlpha" operator="arithmetic" k2="-1" k3="1"/>
<feColorMatrix type="matrix" values="0 0 0 0 1 0 0 0 0 1 0 0 0 0 1 0 0 0 0.25 0"/>
<feBlend mode="normal" in2="shape" result="effect1_innerShadow_9223_8244"/>
</filter>
<filter id="filter7_i_9223_8244" x="39.4357" y="10.3877" width="28.8342" height="71.9914" filterUnits="userSpaceOnUse" color-interpolation-filters="sRGB">
<feFlood flood-opacity="0" result="BackgroundImageFix"/>
<feBlend mode="normal" in="SourceGraphic" in2="BackgroundImageFix" result="shape"/>
<feColorMatrix in="SourceAlpha" type="matrix" values="0 0 0 0 0 0 0 0 0 0 0 0 0 0 0 0 0 0 127 0" result="hardAlpha"/>
<feOffset dy="4"/>
<feGaussianBlur stdDeviation="2"/>
<feComposite in2="hardAlpha" operator="arithmetic" k2="-1" k3="1"/>
<feColorMatrix type="matrix" values="0 0 0 0 1 0 0 0 0 1 0 0 0 0 1 0 0 0 0.25 0"/>
<feBlend mode="normal" in2="shape" result="effect1_innerShadow_9223_8244"/>
</filter>
<filter id="filter8_i_9223_8244" x="17.2927" y="19.2158" width="22.1428" height="30.7057" filterUnits="userSpaceOnUse" color-interpolation-filters="sRGB">
<feFlood flood-opacity="0" result="BackgroundImageFix"/>
<feBlend mode="normal" in="SourceGraphic" in2="BackgroundImageFix" result="shape"/>
<feColorMatrix in="SourceAlpha" type="matrix" values="0 0 0 0 0 0 0 0 0 0 0 0 0 0 0 0 0 0 127 0" result="hardAlpha"/>
<feOffset dy="4"/>
<feGaussianBlur stdDeviation="2"/>
<feComposite in2="hardAlpha" operator="arithmetic" k2="-1" k3="1"/>
<feColorMatrix type="matrix" values="0 0 0 0 1 0 0 0 0 1 0 0 0 0 1 0 0 0 0.25 0"/>
<feBlend mode="normal" in2="shape" result="effect1_innerShadow_9223_8244"/>
</filter>
<filter id="filter9_i_9223_8244" x="20.0681" y="50.342" width="19.3685" height="22.8857" filterUnits="userSpaceOnUse" color-interpolation-filters="sRGB">
<feFlood flood-opacity="0" result="BackgroundImageFix"/>
<feBlend mode="normal" in="SourceGraphic" in2="BackgroundImageFix" result="shape"/>
<feColorMatrix in="SourceAlpha" type="matrix" values="0 0 0 0 0 0 0 0 0 0 0 0 0 0 0 0 0 0 127 0" result="hardAlpha"/>
<feOffset dy="4"/>
<feGaussianBlur stdDeviation="2"/>
<feComposite in2="hardAlpha" operator="arithmetic" k2="-1" k3="1"/>
<feColorMatrix type="matrix" values="0 0 0 0 1 0 0 0 0 1 0 0 0 0 1 0 0 0 0.25 0"/>
<feBlend mode="normal" in2="shape" result="effect1_innerShadow_9223_8244"/>
</filter>
<filter id="filter10_i_9223_8244" x="39.4044" y="37.0901" width="20.5286" height="36.1314" filterUnits="userSpaceOnUse" color-interpolation-filters="sRGB">
<feFlood flood-opacity="0" result="BackgroundImageFix"/>
<feBlend mode="normal" in="SourceGraphic" in2="BackgroundImageFix" result="shape"/>
<feColorMatrix in="SourceAlpha" type="matrix" values="0 0 0 0 0 0 0 0 0 0 0 0 0 0 0 0 0 0 127 0" result="hardAlpha"/>
<feOffset dy="4"/>
<feGaussianBlur stdDeviation="2"/>
<feComposite in2="hardAlpha" operator="arithmetic" k2="-1" k3="1"/>
<feColorMatrix type="matrix" values="0 0 0 0 1 0 0 0 0 1 0 0 0 0 1 0 0 0 0.25 0"/>
<feBlend mode="normal" in2="shape" result="effect1_innerShadow_9223_8244"/>
</filter>
<filter id="filter11_i_9223_8244" x="39.4044" y="19.2158" width="22.1228" height="12.8314" filterUnits="userSpaceOnUse" color-interpolation-filters="sRGB">
<feFlood flood-opacity="0" result="BackgroundImageFix"/>
<feBlend mode="normal" in="SourceGraphic" in2="BackgroundImageFix" result="shape"/>
<feColorMatrix in="SourceAlpha" type="matrix" values="0 0 0 0 0 0 0 0 0 0 0 0 0 0 0 0 0 0 127 0" result="hardAlpha"/>
<feOffset dy="4"/>
<feGaussianBlur stdDeviation="2"/>
<feComposite in2="hardAlpha" operator="arithmetic" k2="-1" k3="1"/>
<feColorMatrix type="matrix" values="0 0 0 0 1 0 0 0 0 1 0 0 0 0 1 0 0 0 0.25 0"/>
<feBlend mode="normal" in2="shape" result="effect1_innerShadow_9223_8244"/>
</filter>
<filter id="filter12_f_9223_8244" x="78.325" y="0.5" width="78.5371" height="88" filterUnits="userSpaceOnUse" color-interpolation-filters="sRGB">
<feFlood flood-opacity="0" result="BackgroundImageFix"/>
<feBlend mode="normal" in="SourceGraphic" in2="BackgroundImageFix" result="shape"/>
<feGaussianBlur stdDeviation="2" result="effect1_foregroundBlur_9223_8244"/>
</filter>
<filter id="filter13_f_9223_8244" x="113.594" y="6.3877" width="36.8342" height="75.9914" filterUnits="userSpaceOnUse" color-interpolation-filters="sRGB">
<feFlood flood-opacity="0" result="BackgroundImageFix"/>
<feBlend mode="normal" in="SourceGraphic" in2="BackgroundImageFix" result="shape"/>
<feGaussianBlur stdDeviation="2" result="effect1_foregroundBlur_9223_8244"/>
</filter>
<filter id="filter14_f_9223_8244" x="113.594" y="14.6011" width="30.1428" height="34.7057" filterUnits="userSpaceOnUse" color-interpolation-filters="sRGB">
<feFlood flood-opacity="0" result="BackgroundImageFix"/>
<feBlend mode="normal" in="SourceGraphic" in2="BackgroundImageFix" result="shape"/>
<feGaussianBlur stdDeviation="2" result="effect1_foregroundBlur_9223_8244"/>
</filter>
<filter id="filter15_f_9223_8244" x="94.2803" y="45.7183" width="27.3685" height="26.8886" filterUnits="userSpaceOnUse" color-interpolation-filters="sRGB">
<feFlood flood-opacity="0" result="BackgroundImageFix"/>
<feBlend mode="normal" in="SourceGraphic" in2="BackgroundImageFix" result="shape"/>
<feGaussianBlur stdDeviation="2" result="effect1_foregroundBlur_9223_8244"/>
</filter>
<filter id="filter16_f_9223_8244" x="113.617" y="40.9302" width="27.7715" height="31.6714" filterUnits="userSpaceOnUse" color-interpolation-filters="sRGB">
<feFlood flood-opacity="0" result="BackgroundImageFix"/>
<feBlend mode="normal" in="SourceGraphic" in2="BackgroundImageFix" result="shape"/>
<feGaussianBlur stdDeviation="2" result="effect1_foregroundBlur_9223_8244"/>
</filter>
<filter id="filter17_f_9223_8244" x="91.5035" y="14.6011" width="30.1228" height="16.8314" filterUnits="userSpaceOnUse" color-interpolation-filters="sRGB">
<feFlood flood-opacity="0" result="BackgroundImageFix"/>
<feBlend mode="normal" in="SourceGraphic" in2="BackgroundImageFix" result="shape"/>
<feGaussianBlur stdDeviation="2" result="effect1_foregroundBlur_9223_8244"/>
</filter>
<filter id="filter18_f_9223_8244" x="103.094" y="32.4751" width="18.5" height="16.8314" filterUnits="userSpaceOnUse" color-interpolation-filters="sRGB">
<feFlood flood-opacity="0" result="BackgroundImageFix"/>
<feBlend mode="normal" in="SourceGraphic" in2="BackgroundImageFix" result="shape"/>
<feGaussianBlur stdDeviation="2" result="effect1_foregroundBlur_9223_8244"/>
</filter>
<filter id="filter19_i_9223_8244" x="82.325" y="4.5" width="70.5371" height="84" filterUnits="userSpaceOnUse" color-interpolation-filters="sRGB">
<feFlood flood-opacity="0" result="BackgroundImageFix"/>
<feBlend mode="normal" in="SourceGraphic" in2="BackgroundImageFix" result="shape"/>
<feColorMatrix in="SourceAlpha" type="matrix" values="0 0 0 0 0 0 0 0 0 0 0 0 0 0 0 0 0 0 127 0" result="hardAlpha"/>
<feOffset dy="4"/>
<feGaussianBlur stdDeviation="2"/>
<feComposite in2="hardAlpha" operator="arithmetic" k2="-1" k3="1"/>
<feColorMatrix type="matrix" values="0 0 0 0 1 0 0 0 0 1 0 0 0 0 1 0 0 0 0.25 0"/>
<feBlend mode="normal" in2="shape" result="effect1_innerShadow_9223_8244"/>
</filter>
<filter id="filter20_i_9223_8244" x="117.594" y="10.3877" width="28.8342" height="71.9914" filterUnits="userSpaceOnUse" color-interpolation-filters="sRGB">
<feFlood flood-opacity="0" result="BackgroundImageFix"/>
<feBlend mode="normal" in="SourceGraphic" in2="BackgroundImageFix" result="shape"/>
<feColorMatrix in="SourceAlpha" type="matrix" values="0 0 0 0 0 0 0 0 0 0 0 0 0 0 0 0 0 0 127 0" result="hardAlpha"/>
<feOffset dy="4"/>
<feGaussianBlur stdDeviation="2"/>
<feComposite in2="hardAlpha" operator="arithmetic" k2="-1" k3="1"/>
<feColorMatrix type="matrix" values="0 0 0 0 1 0 0 0 0 1 0 0 0 0 1 0 0 0 0.25 0"/>
<feBlend mode="normal" in2="shape" result="effect1_innerShadow_9223_8244"/>
</filter>
<filter id="filter21_i_9223_8244" x="117.594" y="18.6011" width="22.1428" height="30.7057" filterUnits="userSpaceOnUse" color-interpolation-filters="sRGB">
<feFlood flood-opacity="0" result="BackgroundImageFix"/>
<feBlend mode="normal" in="SourceGraphic" in2="BackgroundImageFix" result="shape"/>
<feColorMatrix in="SourceAlpha" type="matrix" values="0 0 0 0 0 0 0 0 0 0 0 0 0 0 0 0 0 0 127 0" result="hardAlpha"/>
<feOffset dy="4"/>
<feGaussianBlur stdDeviation="2"/>
<feComposite in2="hardAlpha" operator="arithmetic" k2="-1" k3="1"/>
<feColorMatrix type="matrix" values="0 0 0 0 1 0 0 0 0 1 0 0 0 0 1 0 0 0 0.25 0"/>
<feBlend mode="normal" in2="shape" result="effect1_innerShadow_9223_8244"/>
</filter>
<filter id="filter22_i_9223_8244" x="98.2803" y="49.7183" width="19.3685" height="22.8886" filterUnits="userSpaceOnUse" color-interpolation-filters="sRGB">
<feFlood flood-opacity="0" result="BackgroundImageFix"/>
<feBlend mode="normal" in="SourceGraphic" in2="BackgroundImageFix" result="shape"/>
<feColorMatrix in="SourceAlpha" type="matrix" values="0 0 0 0 0 0 0 0 0 0 0 0 0 0 0 0 0 0 127 0" result="hardAlpha"/>
<feOffset dy="4"/>
<feGaussianBlur stdDeviation="2"/>
<feComposite in2="hardAlpha" operator="arithmetic" k2="-1" k3="1"/>
<feColorMatrix type="matrix" values="0 0 0 0 1 0 0 0 0 1 0 0 0 0 1 0 0 0 0.25 0"/>
<feBlend mode="normal" in2="shape" result="effect1_innerShadow_9223_8244"/>
</filter>
<filter id="filter23_i_9223_8244" x="117.617" y="44.9302" width="19.7715" height="27.6714" filterUnits="userSpaceOnUse" color-interpolation-filters="sRGB">
<feFlood flood-opacity="0" result="BackgroundImageFix"/>
<feBlend mode="normal" in="SourceGraphic" in2="BackgroundImageFix" result="shape"/>
<feColorMatrix in="SourceAlpha" type="matrix" values="0 0 0 0 0 0 0 0 0 0 0 0 0 0 0 0 0 0 127 0" result="hardAlpha"/>
<feOffset dy="4"/>
<feGaussianBlur stdDeviation="2"/>
<feComposite in2="hardAlpha" operator="arithmetic" k2="-1" k3="1"/>
<feColorMatrix type="matrix" values="0 0 0 0 1 0 0 0 0 1 0 0 0 0 1 0 0 0 0.25 0"/>
<feBlend mode="normal" in2="shape" result="effect1_innerShadow_9223_8244"/>
</filter>
<filter id="filter24_i_9223_8244" x="95.5035" y="18.6011" width="22.1228" height="12.8314" filterUnits="userSpaceOnUse" color-interpolation-filters="sRGB">
<feFlood flood-opacity="0" result="BackgroundImageFix"/>
<feBlend mode="normal" in="SourceGraphic" in2="BackgroundImageFix" result="shape"/>
<feColorMatrix in="SourceAlpha" type="matrix" values="0 0 0 0 0 0 0 0 0 0 0 0 0 0 0 0 0 0 127 0" result="hardAlpha"/>
<feOffset dy="4"/>
<feGaussianBlur stdDeviation="2"/>
<feComposite in2="hardAlpha" operator="arithmetic" k2="-1" k3="1"/>
<feColorMatrix type="matrix" values="0 0 0 0 1 0 0 0 0 1 0 0 0 0 1 0 0 0 0.25 0"/>
<feBlend mode="normal" in2="shape" result="effect1_innerShadow_9223_8244"/>
</filter>
<filter id="filter25_i_9223_8244" x="107.094" y="36.4751" width="10.5" height="12.8314" filterUnits="userSpaceOnUse" color-interpolation-filters="sRGB">
<feFlood flood-opacity="0" result="BackgroundImageFix"/>
<feBlend mode="normal" in="SourceGraphic" in2="BackgroundImageFix" result="shape"/>
<feColorMatrix in="SourceAlpha" type="matrix" values="0 0 0 0 0 0 0 0 0 0 0 0 0 0 0 0 0 0 127 0" result="hardAlpha"/>
<feOffset dy="4"/>
<feGaussianBlur stdDeviation="2"/>
<feComposite in2="hardAlpha" operator="arithmetic" k2="-1" k3="1"/>
<feColorMatrix type="matrix" values="0 0 0 0 1 0 0 0 0 1 0 0 0 0 1 0 0 0 0.25 0"/>
<feBlend mode="normal" in2="shape" result="effect1_innerShadow_9223_8244"/>
</filter>
</defs>
</svg>
