<svg width="67" height="89" viewBox="0 0 67 89" fill="none" xmlns="http://www.w3.org/2000/svg">
<g filter="url(#filter0_f_9223_8312)">
<path d="M47.6292 22.5981C45.1046 24.1949 43.1529 25.6014 41.6765 26.8713C39.561 28.6908 38.3759 30.2675 37.9099 31.7669C37.4352 33.2944 37.7296 34.6643 38.3908 35.9992C38.9323 37.0926 39.7427 38.2039 40.6027 39.3832C40.7712 39.6142 40.9415 39.8478 41.1122 40.0844C42.1765 41.5788 42.3823 42.9517 42.134 44.1768C41.8812 45.4234 41.1469 46.5691 40.2397 47.5583C39.7066 48.1396 39.1234 48.6564 38.5646 49.0967C38.6056 49.0177 38.6456 48.9372 38.6844 48.8552C39.0793 48.0196 39.3541 47.0135 39.2562 45.9034C39.1578 44.7875 38.6862 43.6072 37.6539 42.4257C34.4437 38.7358 33.7836 35.6445 34.4496 33.0899C35.1252 30.4982 37.1993 28.3162 39.7622 26.5444C42.3149 24.7795 45.2829 23.4698 47.6249 22.5997C47.6264 22.5991 47.6278 22.5986 47.6292 22.5981ZM24.6072 30.2282L24.6084 30.2264C25.9347 28.2321 27.8627 26.4758 29.9999 24.7406C30.6973 24.1744 31.4201 23.6082 32.1489 23.0373C33.6301 21.877 35.1366 20.6969 36.5071 19.4561C38.5629 17.5951 40.3785 15.5434 41.4579 13.0895C42.2644 11.2561 42.6518 9.21687 42.4423 6.89357C42.8178 7.76511 43.134 8.89931 43.1544 10.2696C43.2063 13.7392 41.3588 18.8882 33.3262 25.2351C30.0382 27.8251 28.1548 30.1763 27.2671 32.3826C26.372 34.607 26.5081 36.6363 27.1608 38.5259C27.8061 40.394 28.9601 42.1342 30.0942 43.793C30.1755 43.9118 30.2566 44.0302 30.3374 44.1482C30.7708 44.7806 31.1963 45.4017 31.5916 46.019C28.8281 43.3599 26.5091 40.8598 25.0648 38.4785C24.1564 36.9807 23.6134 35.5601 23.5083 34.2019C23.4041 32.8555 23.7273 31.5387 24.6072 30.2282ZM20.1288 68.2129C20.4517 67.9413 20.9383 67.6612 21.6185 67.3872C21.6005 67.5923 21.6406 67.8074 21.7597 68.0134C21.8964 68.2497 22.1168 68.4392 22.3914 68.5942C22.931 68.8987 23.8029 69.1378 25.128 69.2999C30.6423 70.0586 36.2358 69.8305 41.6743 68.6154C42.6959 69.2185 43.7573 69.759 44.8436 70.237C37.4191 73.065 29.2405 72.9131 24.2101 71.6357C22.892 71.3009 21.8105 70.8938 21.0241 70.456C20.2168 70.0065 19.8061 69.5722 19.6831 69.227C19.6276 69.0714 19.6276 68.9282 19.6819 68.7804C19.7395 68.6232 19.8705 68.4302 20.1288 68.2129ZM46.0978 61.5994C37.1151 63.9881 27.8201 64.0344 22.226 62.9561C20.7623 62.6739 19.5742 62.3189 18.7194 61.921C17.8343 61.5091 17.4228 61.1051 17.3133 60.7951C17.2354 60.5749 17.2635 60.2312 17.881 59.7274C18.2627 59.416 18.8252 59.0863 19.597 58.7479C19.5856 58.7802 19.575 58.8128 19.5654 58.8458C19.4937 59.0926 19.4709 59.3755 19.5607 59.6654C19.6512 59.9579 19.8419 60.2109 20.1174 60.419C20.6453 60.8179 21.5275 61.0857 22.8576 61.2181C29.9516 62.0545 37.1629 61.7093 44.1419 60.2217C44.7408 60.7283 45.4011 61.2059 46.0978 61.5994ZM58.9843 74.2862C58.9999 74.3335 59.0062 74.3763 59.007 74.4146C59.0095 74.5329 58.9615 74.7017 58.7795 74.927C58.6799 75.0504 58.5471 75.1818 58.3783 75.3193C58.7183 74.9904 58.9132 74.6406 58.9843 74.2862ZM55.6697 76.685C55.9374 76.6034 56.1857 76.5196 56.4157 76.4339C54.5072 77.2674 51.6414 78.0773 47.9929 78.7308C38.5265 80.4262 24.0381 81.0264 8.14657 78.4343L8.14337 78.4338C6.69326 78.2069 5.74451 77.914 5.17454 77.6034C4.60179 77.2913 4.52349 77.0316 4.5275 76.8858C4.53308 76.6833 4.69192 76.3641 5.16469 75.9503C5.61765 75.5539 6.27483 75.1451 7.07065 74.7551C8.46683 74.0709 10.2231 73.477 11.8816 73.1175C11.2444 73.3394 10.5877 73.6044 10.0387 73.8938C9.72332 74.0601 9.42813 74.2423 9.1879 74.4388C8.95546 74.629 8.73094 74.8675 8.62081 75.158C8.49636 75.4862 8.53681 75.8346 8.75937 76.1383C8.95778 76.409 9.27903 76.6158 9.66668 76.7851L9.66756 76.7855C11.7272 77.68 15.0703 78.2773 19.0143 78.6404C22.9754 79.0051 27.5978 79.1378 32.2516 79.0776C41.5397 78.9575 51.0334 78.0678 55.6667 76.686L55.6697 76.685ZM19.2849 53.8139L19.2989 53.8158L19.3129 53.8168C25.7439 54.2992 32.215 54.2188 38.6458 53.5758C41.678 53.2946 44.7076 52.8933 46.9777 52.5626C47.1976 52.5305 47.4105 52.4991 47.6155 52.4686C47.3386 52.6314 47.065 52.8001 46.7953 52.9752C39.5036 54.8808 28.7756 55.3967 20.865 54.9349C16.8829 54.7024 13.684 54.2254 12.0038 53.5845C11.5868 53.4254 11.2953 53.2678 11.114 53.1228C10.9293 52.9751 10.9178 52.8902 10.917 52.8776C10.9165 52.8686 10.9136 52.7789 11.0979 52.5988C11.2808 52.4201 11.596 52.2063 12.0867 51.967L12.0911 51.9648C14.4632 50.7787 16.9839 49.9356 19.5797 49.4627C19.1057 49.6315 18.6409 49.8091 18.2098 49.9918C17.5819 50.258 17.0038 50.5441 16.5692 50.8409C16.3522 50.9891 16.1535 51.1516 16.001 51.3295C15.8512 51.5044 15.7146 51.7309 15.6915 52.0024C15.6667 52.2948 15.7804 52.5525 15.9686 52.7549C16.1455 52.9452 16.3918 53.0932 16.6745 53.215C17.2408 53.4589 18.097 53.6572 19.2849 53.8139ZM51.2073 82.0616L51.2143 82.0602C56.6134 81.0479 59.6448 79.9011 61.3296 78.9705C60.7172 79.5591 59.8518 80.1088 58.7365 80.6152C56.4262 81.6641 53.2146 82.4448 49.5334 82.9899C42.1793 84.0789 33.0825 84.2094 25.9046 83.7508C24.5979 83.6674 23.4397 83.5663 22.4144 83.4541C32.0289 84.1543 41.7045 83.7032 51.2073 82.0616ZM55.5862 48.2887C59.2231 47.9258 62.0438 50.071 62.4471 52.7621C62.6861 54.3569 62.1112 56.2569 60.2218 58.1039C58.811 59.483 56.673 60.8237 53.6269 61.954C58.904 58.574 60.5568 55.2453 60.1135 52.5907C59.7205 50.2368 57.7024 48.6438 55.5862 48.2887Z" stroke="#CAB2FF"/>
</g>
<g filter="url(#filter1_i_9223_8312)">
<path d="M47.6292 22.5981C45.1046 24.1949 43.1529 25.6014 41.6765 26.8713C39.561 28.6908 38.3759 30.2675 37.9099 31.7669C37.4352 33.2944 37.7296 34.6643 38.3908 35.9992C38.9323 37.0926 39.7427 38.2039 40.6027 39.3832C40.7712 39.6142 40.9415 39.8478 41.1122 40.0844C42.1765 41.5788 42.3823 42.9517 42.134 44.1768C41.8812 45.4234 41.1469 46.5691 40.2397 47.5583C39.7066 48.1396 39.1234 48.6564 38.5646 49.0967C38.6056 49.0177 38.6456 48.9372 38.6844 48.8552C39.0793 48.0196 39.3541 47.0135 39.2562 45.9034C39.1578 44.7875 38.6862 43.6072 37.6539 42.4257C34.4437 38.7358 33.7836 35.6445 34.4496 33.0899C35.1252 30.4982 37.1993 28.3162 39.7622 26.5444C42.3149 24.7795 45.2829 23.4698 47.6249 22.5997C47.6264 22.5991 47.6278 22.5986 47.6292 22.5981ZM24.6072 30.2282L24.6084 30.2264C25.9347 28.2321 27.8627 26.4758 29.9999 24.7406C30.6973 24.1744 31.4201 23.6082 32.1489 23.0373C33.6301 21.877 35.1366 20.6969 36.5071 19.4561C38.5629 17.5951 40.3785 15.5434 41.4579 13.0895C42.2644 11.2561 42.6518 9.21687 42.4423 6.89357C42.8178 7.76511 43.134 8.89931 43.1544 10.2696C43.2063 13.7392 41.3588 18.8882 33.3262 25.2351C30.0382 27.8251 28.1548 30.1763 27.2671 32.3826C26.372 34.607 26.5081 36.6363 27.1608 38.5259C27.8061 40.394 28.9601 42.1342 30.0942 43.793C30.1755 43.9118 30.2566 44.0302 30.3374 44.1482C30.7708 44.7806 31.1963 45.4017 31.5916 46.019C28.8281 43.3599 26.5091 40.8598 25.0648 38.4785C24.1564 36.9807 23.6134 35.5601 23.5083 34.2019C23.4041 32.8555 23.7273 31.5387 24.6072 30.2282ZM20.1288 68.2129C20.4517 67.9413 20.9383 67.6612 21.6185 67.3872C21.6005 67.5923 21.6406 67.8074 21.7597 68.0134C21.8964 68.2497 22.1168 68.4392 22.3914 68.5942C22.931 68.8987 23.8029 69.1378 25.128 69.2999C30.6423 70.0586 36.2358 69.8305 41.6743 68.6154C42.6959 69.2185 43.7573 69.759 44.8436 70.237C37.4191 73.065 29.2405 72.9131 24.2101 71.6357C22.892 71.3009 21.8105 70.8938 21.0241 70.456C20.2168 70.0065 19.8061 69.5722 19.6831 69.227C19.6276 69.0714 19.6276 68.9282 19.6819 68.7804C19.7395 68.6232 19.8705 68.4302 20.1288 68.2129ZM46.0978 61.5994C37.1151 63.9881 27.8201 64.0344 22.226 62.9561C20.7623 62.6739 19.5742 62.3189 18.7194 61.921C17.8343 61.5091 17.4228 61.1051 17.3133 60.7951C17.2354 60.5749 17.2635 60.2312 17.881 59.7274C18.2627 59.416 18.8252 59.0863 19.597 58.7479C19.5856 58.7802 19.575 58.8128 19.5654 58.8458C19.4937 59.0926 19.4709 59.3755 19.5607 59.6654C19.6512 59.9579 19.8419 60.2109 20.1174 60.419C20.6453 60.8179 21.5275 61.0857 22.8576 61.2181C29.9516 62.0545 37.1629 61.7093 44.1419 60.2217C44.7408 60.7283 45.4011 61.2059 46.0978 61.5994ZM58.9843 74.2862C58.9999 74.3335 59.0062 74.3763 59.007 74.4146C59.0095 74.5329 58.9615 74.7017 58.7795 74.927C58.6799 75.0504 58.5471 75.1818 58.3783 75.3193C58.7183 74.9904 58.9132 74.6406 58.9843 74.2862ZM55.6697 76.685C55.9374 76.6034 56.1857 76.5196 56.4157 76.4339C54.5072 77.2674 51.6414 78.0773 47.9929 78.7308C38.5265 80.4262 24.0381 81.0264 8.14657 78.4343L8.14337 78.4338C6.69326 78.2069 5.74451 77.914 5.17454 77.6034C4.60179 77.2913 4.52349 77.0316 4.5275 76.8858C4.53308 76.6833 4.69192 76.3641 5.16469 75.9503C5.61765 75.5539 6.27483 75.1451 7.07065 74.7551C8.46683 74.0709 10.2231 73.477 11.8816 73.1175C11.2444 73.3394 10.5877 73.6044 10.0387 73.8938C9.72332 74.0601 9.42813 74.2423 9.1879 74.4388C8.95546 74.629 8.73094 74.8675 8.62081 75.158C8.49636 75.4862 8.53681 75.8346 8.75937 76.1383C8.95778 76.409 9.27903 76.6158 9.66668 76.7851L9.66756 76.7855C11.7272 77.68 15.0703 78.2773 19.0143 78.6404C22.9754 79.0051 27.5978 79.1378 32.2516 79.0776C41.5397 78.9575 51.0334 78.0678 55.6667 76.686L55.6697 76.685ZM19.2849 53.8139L19.2989 53.8158L19.3129 53.8168C25.7439 54.2992 32.215 54.2188 38.6458 53.5758C41.678 53.2946 44.7076 52.8933 46.9777 52.5626C47.1976 52.5305 47.4105 52.4991 47.6155 52.4686C47.3386 52.6314 47.065 52.8001 46.7953 52.9752C39.5036 54.8808 28.7756 55.3967 20.865 54.9349C16.8829 54.7024 13.684 54.2254 12.0038 53.5845C11.5868 53.4254 11.2953 53.2678 11.114 53.1228C10.9293 52.9751 10.9178 52.8902 10.917 52.8776C10.9165 52.8686 10.9136 52.7789 11.0979 52.5988C11.2808 52.4201 11.596 52.2063 12.0867 51.967L12.0911 51.9648C14.4632 50.7787 16.9839 49.9356 19.5797 49.4627C19.1057 49.6315 18.6409 49.8091 18.2098 49.9918C17.5819 50.258 17.0038 50.5441 16.5692 50.8409C16.3522 50.9891 16.1535 51.1516 16.001 51.3295C15.8512 51.5044 15.7146 51.7309 15.6915 52.0024C15.6667 52.2948 15.7804 52.5525 15.9686 52.7549C16.1455 52.9452 16.3918 53.0932 16.6745 53.215C17.2408 53.4589 18.097 53.6572 19.2849 53.8139ZM51.2073 82.0616L51.2143 82.0602C56.6134 81.0479 59.6448 79.9011 61.3296 78.9705C60.7172 79.5591 59.8518 80.1088 58.7365 80.6152C56.4262 81.6641 53.2146 82.4448 49.5334 82.9899C42.1793 84.0789 33.0825 84.2094 25.9046 83.7508C24.5979 83.6674 23.4397 83.5663 22.4144 83.4541C32.0289 84.1543 41.7045 83.7032 51.2073 82.0616ZM55.5862 48.2887C59.2231 47.9258 62.0438 50.071 62.4471 52.7621C62.6861 54.3569 62.1112 56.2569 60.2218 58.1039C58.811 59.483 56.673 60.8237 53.6269 61.954C58.904 58.574 60.5568 55.2453 60.1135 52.5907C59.7205 50.2368 57.7024 48.6438 55.5862 48.2887Z" stroke="#CAB2FF"/>
</g>
<defs>
<filter id="filter0_f_9223_8312" x="0.0273438" y="0.5" width="66.9711" height="88" filterUnits="userSpaceOnUse" color-interpolation-filters="sRGB">
<feFlood flood-opacity="0" result="BackgroundImageFix"/>
<feBlend mode="normal" in="SourceGraphic" in2="BackgroundImageFix" result="shape"/>
<feGaussianBlur stdDeviation="2" result="effect1_foregroundBlur_9223_8312"/>
</filter>
<filter id="filter1_i_9223_8312" x="4.02734" y="4.5" width="58.9711" height="84" filterUnits="userSpaceOnUse" color-interpolation-filters="sRGB">
<feFlood flood-opacity="0" result="BackgroundImageFix"/>
<feBlend mode="normal" in="SourceGraphic" in2="BackgroundImageFix" result="shape"/>
<feColorMatrix in="SourceAlpha" type="matrix" values="0 0 0 0 0 0 0 0 0 0 0 0 0 0 0 0 0 0 127 0" result="hardAlpha"/>
<feOffset dy="4"/>
<feGaussianBlur stdDeviation="2"/>
<feComposite in2="hardAlpha" operator="arithmetic" k2="-1" k3="1"/>
<feColorMatrix type="matrix" values="0 0 0 0 0.694118 0 0 0 0 0.533333 0 0 0 0 0.992157 0 0 0 1 0"/>
<feBlend mode="normal" in2="shape" result="effect1_innerShadow_9223_8312"/>
</filter>
</defs>
</svg>
