<svg width="89" height="89" viewBox="0 0 89 89" fill="none" xmlns="http://www.w3.org/2000/svg">
<g filter="url(#filter0_f_9223_8279)">
<path d="M5.01294 5H84.0129V84H5.01294V5Z" stroke="#FFB2D6"/>
</g>
<g filter="url(#filter1_f_9223_8279)">
<mask id="path-2-inside-1_9223_8279" fill="white">
<path d="M25.5493 71.354L31.6711 67.649C32.8524 69.743 33.9268 71.5149 36.504 71.5149C38.9743 71.5149 40.5321 70.5486 40.5321 66.7899V41.228H48.0499V66.8961C48.0499 74.6827 43.4855 78.2271 36.8261 78.2271C30.8121 78.2271 27.3211 75.1124 25.549 71.3533"/>
</mask>
<path d="M31.6711 67.649L32.5421 67.1576L32.0355 66.2596L31.1534 66.7934L31.6711 67.649ZM40.5321 41.228V40.228H39.5321V41.228H40.5321ZM48.0499 41.228H49.0499V40.228H48.0499V41.228ZM26.067 72.2095L32.1889 68.5045L31.1534 66.7934L25.0315 70.4984L26.067 72.2095ZM30.8002 68.1403C31.3789 69.1663 32.0103 70.2666 32.8737 71.0906C33.787 71.9623 34.9433 72.5149 36.504 72.5149V70.5149C35.4874 70.5149 34.8179 70.1815 34.2545 69.6438C33.6411 69.0583 33.1446 68.2257 32.5421 67.1576L30.8002 68.1403ZM36.504 72.5149C37.8397 72.5149 39.18 72.2589 40.1581 71.2624C41.1269 70.2753 41.5321 68.773 41.5321 66.7899H39.5321C39.5321 68.5655 39.1584 69.4257 38.7307 69.8614C38.3123 70.2878 37.6385 70.5149 36.504 70.5149V72.5149ZM41.5321 66.7899V41.228H39.5321V66.7899H41.5321ZM40.5321 42.228H48.0499V40.228H40.5321V42.228ZM47.0499 41.228V66.8961H49.0499V41.228H47.0499ZM47.0499 66.8961C47.0499 70.592 45.972 73.1309 44.2495 74.7537C42.5164 76.3866 39.9879 77.2271 36.8261 77.2271V79.2271C40.3238 79.2271 43.4071 78.2953 45.621 76.2094C47.8456 74.1134 49.0499 70.9869 49.0499 66.8961H47.0499ZM36.8261 77.2271C31.2447 77.2271 28.0809 74.379 26.4535 70.9269L24.6444 71.7798C26.5613 75.8458 30.3794 79.2271 36.8261 79.2271V77.2271Z" fill="#FFB2D6" mask="url(#path-2-inside-1_9223_8279)"/>
</g>
<g filter="url(#filter2_f_9223_8279)">
<mask id="path-4-inside-2_9223_8279" fill="white">
<path d="M52.1304 70.5489L58.2517 67.0048C59.8632 69.6364 61.9576 71.5695 65.6626 71.5695C68.7779 71.5695 70.7642 70.012 70.7642 67.8639C70.7642 65.2864 68.7236 64.3733 65.2867 62.8701L63.4076 62.0639C57.9836 59.7555 54.3858 56.8555 54.3858 50.7336C54.3858 45.0948 58.6817 40.7986 65.3945 40.7986C70.1739 40.7986 73.6107 42.4636 76.0807 46.8133L70.227 50.5726C68.9379 48.2636 67.5423 47.3508 65.3942 47.3508C63.1923 47.3508 61.7961 48.747 61.7961 50.5726C61.7961 52.828 63.1923 53.7414 66.4142 55.1376L68.2936 55.943C74.6842 58.682 78.282 61.4742 78.282 67.7567C78.282 74.5236 72.9657 78.2286 65.8236 78.2286C58.8426 78.2286 54.3317 74.8992 52.1301 70.5492"/>
</mask>
<path d="M58.2517 67.0048L59.1045 66.4826L58.595 65.6506L57.7506 66.1394L58.2517 67.0048ZM65.2867 62.8701L65.6874 61.9539L65.681 61.9512L65.2867 62.8701ZM63.4076 62.0639L63.8019 61.1449L63.7992 61.1438L63.4076 62.0639ZM76.0807 46.8133L76.6211 47.6547L77.4179 47.143L76.9503 46.3195L76.0807 46.8133ZM70.227 50.5726L69.3538 51.0601L69.8723 51.9889L70.7674 51.4141L70.227 50.5726ZM66.4142 55.1376L66.0165 56.0552L66.0203 56.0568L66.4142 55.1376ZM68.2936 55.943L68.6875 55.0238L68.6874 55.0238L68.2936 55.943ZM52.6315 71.4143L58.7527 67.8702L57.7506 66.1394L51.6294 69.6835L52.6315 71.4143ZM57.3989 67.5271C58.2446 68.9081 59.2596 70.1779 60.6078 71.0996C61.9723 72.0323 63.6213 72.5695 65.6626 72.5695V70.5695C63.999 70.5695 62.7483 70.1402 61.7365 69.4485C60.7083 68.7457 59.8703 67.7331 59.1045 66.4826L57.3989 67.5271ZM65.6626 72.5695C67.3766 72.5695 68.8778 72.1419 69.9778 71.3251C71.0974 70.4937 71.7642 69.279 71.7642 67.8639H69.7642C69.7642 68.5969 69.4378 69.235 68.7855 69.7194C68.1135 70.2183 67.064 70.5695 65.6626 70.5695V72.5695ZM71.7642 67.8639C71.7642 67.0813 71.6077 66.3791 71.279 65.7466C70.9526 65.1184 70.4837 64.6112 69.9321 64.1778C68.8696 63.343 67.3629 62.6867 65.6874 61.9539L64.886 63.7864C66.6473 64.5567 67.8794 65.1085 68.6965 65.7505C69.0846 66.0554 69.3406 66.3537 69.5043 66.6687C69.6656 66.9792 69.7642 67.3577 69.7642 67.8639H71.7642ZM65.681 61.9512L63.8019 61.1449L63.0133 62.9829L64.8924 63.7891L65.681 61.9512ZM63.7992 61.1438C61.1346 60.0097 59.0413 58.7784 57.6108 57.1653C56.2106 55.5864 55.3858 53.5736 55.3858 50.7336H53.3858C53.3858 54.0154 54.3598 56.5136 56.1145 58.4923C57.8389 60.4368 60.2566 61.8096 63.016 62.984L63.7992 61.1438ZM55.3858 50.7336C55.3858 48.1782 56.354 45.9644 58.0538 44.3839C59.7564 42.8006 62.2538 41.7986 65.3945 41.7986V39.7986C61.8224 39.7986 58.8154 40.9447 56.6919 42.9192C54.5654 44.8965 53.3858 47.6502 53.3858 50.7336H55.3858ZM65.3945 41.7986C67.6694 41.7986 69.547 42.1947 71.1259 43.0533C72.6985 43.9084 74.0506 45.2634 75.2112 47.3071L76.9503 46.3195C75.6409 44.0135 74.0396 42.3611 72.0813 41.2963C70.1295 40.2349 67.899 39.7986 65.3945 39.7986V41.7986ZM75.5404 45.9718L69.6866 49.7312L70.7674 51.4141L76.6211 47.6547L75.5404 45.9718ZM71.1001 50.0852C70.4123 48.8531 69.6454 47.8997 68.6858 47.2627C67.7095 46.6146 66.6201 46.3508 65.3942 46.3508V48.3508C66.3164 48.3508 66.9988 48.5434 67.5797 48.9289C68.1772 49.3256 68.7526 49.9832 69.3538 51.0601L71.1001 50.0852ZM65.3942 46.3508C64.0799 46.3508 62.9259 46.7704 62.0905 47.5429C61.2518 48.3184 60.7961 49.3945 60.7961 50.5726H62.7961C62.7961 49.9252 63.0384 49.3903 63.4483 49.0113C63.8615 48.6293 64.5066 48.3508 65.3942 48.3508V46.3508ZM60.7961 50.5726C60.7961 51.9631 61.2503 53.0301 62.2235 53.9166C63.1155 54.729 64.4206 55.3636 66.0166 56.0552L66.8118 54.2201C65.1859 53.5155 64.182 52.9952 63.5703 52.438C63.0399 51.9549 62.7961 51.4375 62.7961 50.5726H60.7961ZM66.0203 56.0568L67.8997 56.8621L68.6874 55.0238L66.8081 54.2185L66.0203 56.0568ZM67.8996 56.8621C71.0701 58.221 73.4033 59.5372 74.9521 61.2021C76.4573 62.8204 77.282 64.8357 77.282 67.7567H79.282C79.282 64.3952 78.3078 61.8732 76.4165 59.84C74.5686 57.8535 71.9076 56.404 68.6875 55.0238L67.8996 56.8621ZM77.282 67.7567C77.282 70.8504 76.0804 73.175 74.1076 74.7484C72.1082 76.3431 69.2338 77.2286 65.8236 77.2286V79.2286C69.5555 79.2286 72.9103 78.2616 75.3546 76.312C77.8255 74.3413 79.282 71.4299 79.282 67.7567H77.282ZM65.8236 77.2286C59.2082 77.2286 55.0486 74.1012 53.0224 70.0976L51.2379 71.0008C53.6148 75.6972 58.477 79.2286 65.8236 79.2286V77.2286Z" fill="#FFB2D6" mask="url(#path-4-inside-2_9223_8279)"/>
</g>
<g filter="url(#filter3_i_9223_8279)">
<path d="M5.01294 5H84.0129V84H5.01294V5Z" stroke="#FFB2D6"/>
</g>
<g filter="url(#filter4_i_9223_8279)">
<mask id="path-7-inside-3_9223_8279" fill="white">
<path d="M25.5493 71.354L31.6711 67.649C32.8524 69.743 33.9268 71.5149 36.504 71.5149C38.9743 71.5149 40.5321 70.5486 40.5321 66.7899V41.228H48.0499V66.8961C48.0499 74.6827 43.4855 78.2271 36.8261 78.2271C30.8121 78.2271 27.3211 75.1124 25.549 71.3533"/>
</mask>
<path d="M31.6711 67.649L32.5421 67.1576L32.0355 66.2596L31.1534 66.7934L31.6711 67.649ZM40.5321 41.228V40.228H39.5321V41.228H40.5321ZM48.0499 41.228H49.0499V40.228H48.0499V41.228ZM26.067 72.2095L32.1889 68.5045L31.1534 66.7934L25.0315 70.4984L26.067 72.2095ZM30.8002 68.1403C31.3789 69.1663 32.0103 70.2666 32.8737 71.0906C33.787 71.9623 34.9433 72.5149 36.504 72.5149V70.5149C35.4874 70.5149 34.8179 70.1815 34.2545 69.6438C33.6411 69.0583 33.1446 68.2257 32.5421 67.1576L30.8002 68.1403ZM36.504 72.5149C37.8397 72.5149 39.18 72.2589 40.1581 71.2624C41.1269 70.2753 41.5321 68.773 41.5321 66.7899H39.5321C39.5321 68.5655 39.1584 69.4257 38.7307 69.8614C38.3123 70.2878 37.6385 70.5149 36.504 70.5149V72.5149ZM41.5321 66.7899V41.228H39.5321V66.7899H41.5321ZM40.5321 42.228H48.0499V40.228H40.5321V42.228ZM47.0499 41.228V66.8961H49.0499V41.228H47.0499ZM47.0499 66.8961C47.0499 70.592 45.972 73.1309 44.2495 74.7537C42.5164 76.3866 39.9879 77.2271 36.8261 77.2271V79.2271C40.3238 79.2271 43.4071 78.2953 45.621 76.2094C47.8456 74.1134 49.0499 70.9869 49.0499 66.8961H47.0499ZM36.8261 77.2271C31.2447 77.2271 28.0809 74.379 26.4535 70.9269L24.6444 71.7798C26.5613 75.8458 30.3794 79.2271 36.8261 79.2271V77.2271Z" fill="#FFB2D6" mask="url(#path-7-inside-3_9223_8279)"/>
</g>
<g filter="url(#filter5_i_9223_8279)">
<mask id="path-9-inside-4_9223_8279" fill="white">
<path d="M52.1304 70.5489L58.2517 67.0048C59.8632 69.6364 61.9576 71.5695 65.6626 71.5695C68.7779 71.5695 70.7642 70.012 70.7642 67.8639C70.7642 65.2864 68.7236 64.3733 65.2867 62.8701L63.4076 62.0639C57.9836 59.7555 54.3858 56.8555 54.3858 50.7336C54.3858 45.0948 58.6817 40.7986 65.3945 40.7986C70.1739 40.7986 73.6107 42.4636 76.0807 46.8133L70.227 50.5726C68.9379 48.2636 67.5423 47.3508 65.3942 47.3508C63.1923 47.3508 61.7961 48.747 61.7961 50.5726C61.7961 52.828 63.1923 53.7414 66.4142 55.1376L68.2936 55.943C74.6842 58.682 78.282 61.4742 78.282 67.7567C78.282 74.5236 72.9657 78.2286 65.8236 78.2286C58.8426 78.2286 54.3317 74.8992 52.1301 70.5492"/>
</mask>
<path d="M58.2517 67.0048L59.1045 66.4826L58.595 65.6506L57.7506 66.1394L58.2517 67.0048ZM65.2867 62.8701L65.6874 61.9539L65.681 61.9512L65.2867 62.8701ZM63.4076 62.0639L63.8019 61.1449L63.7992 61.1438L63.4076 62.0639ZM76.0807 46.8133L76.6211 47.6547L77.4179 47.143L76.9503 46.3195L76.0807 46.8133ZM70.227 50.5726L69.3538 51.0601L69.8723 51.9889L70.7674 51.4141L70.227 50.5726ZM66.4142 55.1376L66.0165 56.0552L66.0203 56.0568L66.4142 55.1376ZM68.2936 55.943L68.6875 55.0238L68.6874 55.0238L68.2936 55.943ZM52.6315 71.4143L58.7527 67.8702L57.7506 66.1394L51.6294 69.6835L52.6315 71.4143ZM57.3989 67.5271C58.2446 68.9081 59.2596 70.1779 60.6078 71.0996C61.9723 72.0323 63.6213 72.5695 65.6626 72.5695V70.5695C63.999 70.5695 62.7483 70.1402 61.7365 69.4485C60.7083 68.7457 59.8703 67.7331 59.1045 66.4826L57.3989 67.5271ZM65.6626 72.5695C67.3766 72.5695 68.8778 72.1419 69.9778 71.3251C71.0974 70.4937 71.7642 69.279 71.7642 67.8639H69.7642C69.7642 68.5969 69.4378 69.235 68.7855 69.7194C68.1135 70.2183 67.064 70.5695 65.6626 70.5695V72.5695ZM71.7642 67.8639C71.7642 67.0813 71.6077 66.3791 71.279 65.7466C70.9526 65.1184 70.4837 64.6112 69.9321 64.1778C68.8696 63.343 67.3629 62.6867 65.6874 61.9539L64.886 63.7864C66.6473 64.5567 67.8794 65.1085 68.6965 65.7505C69.0846 66.0554 69.3406 66.3537 69.5043 66.6687C69.6656 66.9792 69.7642 67.3577 69.7642 67.8639H71.7642ZM65.681 61.9512L63.8019 61.1449L63.0133 62.9829L64.8924 63.7891L65.681 61.9512ZM63.7992 61.1438C61.1346 60.0097 59.0413 58.7784 57.6108 57.1653C56.2106 55.5864 55.3858 53.5736 55.3858 50.7336H53.3858C53.3858 54.0154 54.3598 56.5136 56.1145 58.4923C57.8389 60.4368 60.2566 61.8096 63.016 62.984L63.7992 61.1438ZM55.3858 50.7336C55.3858 48.1782 56.354 45.9644 58.0538 44.3839C59.7564 42.8006 62.2538 41.7986 65.3945 41.7986V39.7986C61.8224 39.7986 58.8154 40.9447 56.6919 42.9192C54.5654 44.8965 53.3858 47.6502 53.3858 50.7336H55.3858ZM65.3945 41.7986C67.6694 41.7986 69.547 42.1947 71.1259 43.0533C72.6985 43.9084 74.0506 45.2634 75.2112 47.3071L76.9503 46.3195C75.6409 44.0135 74.0396 42.3611 72.0813 41.2963C70.1295 40.2349 67.899 39.7986 65.3945 39.7986V41.7986ZM75.5404 45.9718L69.6866 49.7312L70.7674 51.4141L76.6211 47.6547L75.5404 45.9718ZM71.1001 50.0852C70.4123 48.8531 69.6454 47.8997 68.6858 47.2627C67.7095 46.6146 66.6201 46.3508 65.3942 46.3508V48.3508C66.3164 48.3508 66.9988 48.5434 67.5797 48.9289C68.1772 49.3256 68.7526 49.9832 69.3538 51.0601L71.1001 50.0852ZM65.3942 46.3508C64.0799 46.3508 62.9259 46.7704 62.0905 47.5429C61.2518 48.3184 60.7961 49.3945 60.7961 50.5726H62.7961C62.7961 49.9252 63.0384 49.3903 63.4483 49.0113C63.8615 48.6293 64.5066 48.3508 65.3942 48.3508V46.3508ZM60.7961 50.5726C60.7961 51.9631 61.2503 53.0301 62.2235 53.9166C63.1155 54.729 64.4206 55.3636 66.0166 56.0552L66.8118 54.2201C65.1859 53.5155 64.182 52.9952 63.5703 52.438C63.0399 51.9549 62.7961 51.4375 62.7961 50.5726H60.7961ZM66.0203 56.0568L67.8997 56.8621L68.6874 55.0238L66.8081 54.2185L66.0203 56.0568ZM67.8996 56.8621C71.0701 58.221 73.4033 59.5372 74.9521 61.2021C76.4573 62.8204 77.282 64.8357 77.282 67.7567H79.282C79.282 64.3952 78.3078 61.8732 76.4165 59.84C74.5686 57.8535 71.9076 56.404 68.6875 55.0238L67.8996 56.8621ZM77.282 67.7567C77.282 70.8504 76.0804 73.175 74.1076 74.7484C72.1082 76.3431 69.2338 77.2286 65.8236 77.2286V79.2286C69.5555 79.2286 72.9103 78.2616 75.3546 76.312C77.8255 74.3413 79.282 71.4299 79.282 67.7567H77.282ZM65.8236 77.2286C59.2082 77.2286 55.0486 74.1012 53.0224 70.0976L51.2379 71.0008C53.6148 75.6972 58.477 79.2286 65.8236 79.2286V77.2286Z" fill="#FFB2D6" mask="url(#path-9-inside-4_9223_8279)"/>
</g>
<defs>
<filter id="filter0_f_9223_8279" x="0.512939" y="0.5" width="88" height="88" filterUnits="userSpaceOnUse" color-interpolation-filters="sRGB">
<feFlood flood-opacity="0" result="BackgroundImageFix"/>
<feBlend mode="normal" in="SourceGraphic" in2="BackgroundImageFix" result="shape"/>
<feGaussianBlur stdDeviation="2" result="effect1_foregroundBlur_9223_8279"/>
</filter>
<filter id="filter1_f_9223_8279" x="21.549" y="37.228" width="30.501" height="44.999" filterUnits="userSpaceOnUse" color-interpolation-filters="sRGB">
<feFlood flood-opacity="0" result="BackgroundImageFix"/>
<feBlend mode="normal" in="SourceGraphic" in2="BackgroundImageFix" result="shape"/>
<feGaussianBlur stdDeviation="2" result="effect1_foregroundBlur_9223_8279"/>
</filter>
<filter id="filter2_f_9223_8279" x="48.1301" y="36.7986" width="34.1519" height="45.43" filterUnits="userSpaceOnUse" color-interpolation-filters="sRGB">
<feFlood flood-opacity="0" result="BackgroundImageFix"/>
<feBlend mode="normal" in="SourceGraphic" in2="BackgroundImageFix" result="shape"/>
<feGaussianBlur stdDeviation="2" result="effect1_foregroundBlur_9223_8279"/>
</filter>
<filter id="filter3_i_9223_8279" x="4.51294" y="4.5" width="80" height="84" filterUnits="userSpaceOnUse" color-interpolation-filters="sRGB">
<feFlood flood-opacity="0" result="BackgroundImageFix"/>
<feBlend mode="normal" in="SourceGraphic" in2="BackgroundImageFix" result="shape"/>
<feColorMatrix in="SourceAlpha" type="matrix" values="0 0 0 0 0 0 0 0 0 0 0 0 0 0 0 0 0 0 127 0" result="hardAlpha"/>
<feOffset dy="4"/>
<feGaussianBlur stdDeviation="2"/>
<feComposite in2="hardAlpha" operator="arithmetic" k2="-1" k3="1"/>
<feColorMatrix type="matrix" values="0 0 0 0 1 0 0 0 0 1 0 0 0 0 1 0 0 0 0.25 0"/>
<feBlend mode="normal" in2="shape" result="effect1_innerShadow_9223_8279"/>
</filter>
<filter id="filter4_i_9223_8279" x="25.549" y="41.228" width="22.501" height="40.999" filterUnits="userSpaceOnUse" color-interpolation-filters="sRGB">
<feFlood flood-opacity="0" result="BackgroundImageFix"/>
<feBlend mode="normal" in="SourceGraphic" in2="BackgroundImageFix" result="shape"/>
<feColorMatrix in="SourceAlpha" type="matrix" values="0 0 0 0 0 0 0 0 0 0 0 0 0 0 0 0 0 0 127 0" result="hardAlpha"/>
<feOffset dy="4"/>
<feGaussianBlur stdDeviation="2"/>
<feComposite in2="hardAlpha" operator="arithmetic" k2="-1" k3="1"/>
<feColorMatrix type="matrix" values="0 0 0 0 1 0 0 0 0 1 0 0 0 0 1 0 0 0 0.25 0"/>
<feBlend mode="normal" in2="shape" result="effect1_innerShadow_9223_8279"/>
</filter>
<filter id="filter5_i_9223_8279" x="52.1301" y="40.7986" width="26.1519" height="41.43" filterUnits="userSpaceOnUse" color-interpolation-filters="sRGB">
<feFlood flood-opacity="0" result="BackgroundImageFix"/>
<feBlend mode="normal" in="SourceGraphic" in2="BackgroundImageFix" result="shape"/>
<feColorMatrix in="SourceAlpha" type="matrix" values="0 0 0 0 0 0 0 0 0 0 0 0 0 0 0 0 0 0 127 0" result="hardAlpha"/>
<feOffset dy="4"/>
<feGaussianBlur stdDeviation="2"/>
<feComposite in2="hardAlpha" operator="arithmetic" k2="-1" k3="1"/>
<feColorMatrix type="matrix" values="0 0 0 0 1 0 0 0 0 1 0 0 0 0 1 0 0 0 0.25 0"/>
<feBlend mode="normal" in2="shape" result="effect1_innerShadow_9223_8279"/>
</filter>
</defs>
</svg>
