<svg width="35" height="35" viewBox="0 0 35 35" fill="none" xmlns="http://www.w3.org/2000/svg">
<path d="M17.5276 9.50004L9.37504 9.50004M9.37504 9.50004L6.61766 9.50004C5.15562 9.50004 3.65917 9.84064 2.75876 10.9929C1.79857 12.223 0.769531 14.3173 0.769531 17.6526C0.769531 20.9861 1.79857 23.0823 2.75876 24.3124C3.65917 25.4646 5.15562 25.8052 6.61766 25.8052H9.37504M9.37504 9.50004L9.37504 6.74266C9.37504 5.28062 9.71564 3.78417 10.8679 2.88376C12.098 1.92357 14.1923 0.894531 17.5276 0.894531C20.8611 0.894531 22.9573 1.92357 24.1874 2.88376C25.3396 3.78417 25.6802 5.28062 25.6802 6.74266V9.50004M17.5276 25.8052H25.6802M25.6802 25.8052L28.4358 25.8052C29.8978 25.8052 31.3961 25.4646 32.2947 24.3124C33.2567 23.0823 34.2857 20.9879 34.2857 17.6526C34.2857 14.3191 33.2567 12.223 32.2965 10.9929C31.3961 9.84064 29.8978 9.50004 28.4376 9.50004H25.6802M25.6802 25.8052L25.6802 28.5608C25.6802 30.0228 25.3396 31.5211 24.1874 32.4197C22.9573 33.3817 20.8629 34.4107 17.5276 34.4107C14.1941 34.4107 12.098 33.3817 10.8679 32.4215C9.71564 31.5211 9.37504 30.0228 9.37504 28.5626V25.8052M25.6802 9.50004V14.0293C25.6802 14.9902 25.2985 15.9119 24.619 16.5914C23.9394 17.2709 23.0178 17.6526 22.0568 17.6526L12.9984 17.6526C12.0374 17.6526 11.1158 18.0344 10.4363 18.7139C9.75679 19.3934 9.37504 20.315 9.37504 21.276L9.37504 25.8052" stroke="#FFD244" stroke-linecap="round" stroke-linejoin="round"/>
<path d="M22.9619 29.4283C22.9619 29.7886 22.8188 30.1342 22.5639 30.3891C22.3091 30.6439 21.9635 30.787 21.6032 30.787C21.2428 30.787 20.8972 30.6439 20.6424 30.3891C20.3875 30.1342 20.2444 29.7886 20.2444 29.4283C20.2444 29.0679 20.3875 28.7223 20.6424 28.4675C20.8972 28.2127 21.2428 28.0695 21.6032 28.0695C21.9635 28.0695 22.3091 28.2127 22.5639 28.4675C22.8188 28.7223 22.9619 29.0679 22.9619 29.4283ZM12.0918 5.87634C12.0918 5.51598 12.235 5.17037 12.4898 4.91555C12.7446 4.66073 13.0902 4.51758 13.4506 4.51758C13.8109 4.51758 14.1565 4.66073 14.4114 4.91555C14.6662 5.17037 14.8093 5.51598 14.8093 5.87634C14.8093 6.23671 14.6662 6.58232 14.4114 6.83713C14.1565 7.09195 13.8109 7.23511 13.4506 7.23511C13.0902 7.23511 12.7446 7.09195 12.4898 6.83713C12.235 6.58232 12.0918 6.23671 12.0918 5.87634Z" fill="#FFD244"/>
</svg>
