<svg width="83" height="81" viewBox="0 0 83 81" fill="none" xmlns="http://www.w3.org/2000/svg">
<g filter="url(#filter0_f_9223_8299)">
<path d="M54.5933 33.1366C59.6043 42.0381 62.623 50.9243 63.4674 58.0826C63.8898 61.663 63.7652 64.7855 63.0932 67.2529C62.4219 69.7179 61.2169 71.4904 59.5023 72.4557C57.7877 73.4209 55.6472 73.5316 53.1916 72.8269C50.7335 72.1215 47.9993 70.6083 45.1574 68.39C39.4754 63.955 33.4441 56.7646 28.4331 47.8632C23.4222 38.9618 20.4034 30.0755 19.559 22.9172C19.1367 19.3369 19.2613 16.2143 19.9333 13.7469C20.6046 11.282 21.8096 9.5094 23.5242 8.54419C25.2387 7.57898 27.3792 7.46827 29.8349 8.17297C32.2929 8.87835 35.0272 10.3915 37.8691 12.6098C43.551 17.0449 49.5824 24.2352 54.5933 33.1366Z" stroke="#FFB2D6"/>
<path d="M54.5124 48.0051C49.4049 56.8515 43.2957 63.9758 37.5659 68.3489C34.7 70.5361 31.9495 72.0194 29.4839 72.698C27.0207 73.376 24.8816 73.242 23.1776 72.2582C21.4736 71.2744 20.288 69.4888 19.6435 67.0167C18.9984 64.5421 18.9078 61.4184 19.369 57.8429C20.2913 50.6942 23.4065 41.8413 28.5139 32.9949C33.6214 24.1485 39.7306 17.0242 45.4605 12.6512C48.3263 10.464 51.0769 8.98061 53.5425 8.30201C56.0056 7.62406 58.1448 7.75804 59.8488 8.74184C61.5528 9.72564 62.7384 11.5112 63.3828 13.9833C64.0279 16.4579 64.1186 19.5816 63.6573 23.1571C62.7351 30.3058 59.6199 39.1587 54.5124 48.0051Z" stroke="#FFB2D6"/>
<path d="M41.5129 55.5102C31.2979 55.5102 22.0735 53.7816 15.4214 51.0059C12.0943 49.6176 9.43444 47.9773 7.61395 46.1813C5.79526 44.3871 4.84171 42.4676 4.84171 40.5C4.84171 38.5324 5.79526 36.6128 7.61395 34.8186C9.43444 33.0227 12.0943 31.3823 15.4214 29.994C22.0735 27.2183 31.298 25.4897 41.5129 25.4897C51.7278 25.4897 60.9523 27.2183 67.6044 29.994C70.9315 31.3823 73.5914 33.0227 75.4118 34.8186C77.2305 36.6128 78.1841 38.5324 78.1841 40.5C78.1841 42.4676 77.2305 44.3871 75.4118 46.1813C73.5914 47.9773 70.9315 49.6176 67.6043 51.0059C60.9523 53.7816 51.7278 55.5102 41.5129 55.5102Z" stroke="#FFB2D6"/>
<circle cx="41.5129" cy="40.5" r="7.22091" stroke="#FFB2D6"/>
</g>
<g filter="url(#filter1_i_9223_8299)">
<path d="M54.5933 33.1366C59.6043 42.0381 62.623 50.9243 63.4674 58.0826C63.8898 61.663 63.7652 64.7855 63.0932 67.2529C62.4219 69.7179 61.2169 71.4904 59.5023 72.4557C57.7877 73.4209 55.6472 73.5316 53.1916 72.8269C50.7335 72.1215 47.9993 70.6083 45.1574 68.39C39.4754 63.955 33.4441 56.7646 28.4331 47.8632C23.4222 38.9618 20.4034 30.0755 19.559 22.9172C19.1367 19.3369 19.2613 16.2143 19.9333 13.7469C20.6046 11.282 21.8096 9.5094 23.5242 8.54419C25.2387 7.57898 27.3792 7.46827 29.8349 8.17297C32.2929 8.87835 35.0272 10.3915 37.8691 12.6098C43.551 17.0449 49.5824 24.2352 54.5933 33.1366Z" stroke="#FFB2D6"/>
<path d="M54.5124 48.0051C49.4049 56.8515 43.2957 63.9758 37.5659 68.3489C34.7 70.5361 31.9495 72.0194 29.4839 72.698C27.0207 73.376 24.8816 73.242 23.1776 72.2582C21.4736 71.2744 20.288 69.4888 19.6435 67.0167C18.9984 64.5421 18.9078 61.4184 19.369 57.8429C20.2913 50.6942 23.4065 41.8413 28.5139 32.9949C33.6214 24.1485 39.7306 17.0242 45.4605 12.6512C48.3263 10.464 51.0769 8.98061 53.5425 8.30201C56.0056 7.62406 58.1448 7.75804 59.8488 8.74184C61.5528 9.72564 62.7384 11.5112 63.3828 13.9833C64.0279 16.4579 64.1186 19.5816 63.6573 23.1571C62.7351 30.3058 59.6199 39.1587 54.5124 48.0051Z" stroke="#FFB2D6"/>
<path d="M41.5129 55.5102C31.2979 55.5102 22.0735 53.7816 15.4214 51.0059C12.0943 49.6176 9.43444 47.9773 7.61395 46.1813C5.79526 44.3871 4.84171 42.4676 4.84171 40.5C4.84171 38.5324 5.79526 36.6128 7.61395 34.8186C9.43444 33.0227 12.0943 31.3823 15.4214 29.994C22.0735 27.2183 31.298 25.4897 41.5129 25.4897C51.7278 25.4897 60.9523 27.2183 67.6044 29.994C70.9315 31.3823 73.5914 33.0227 75.4118 34.8186C77.2305 36.6128 78.1841 38.5324 78.1841 40.5C78.1841 42.4676 77.2305 44.3871 75.4118 46.1813C73.5914 47.9773 70.9315 49.6176 67.6043 51.0059C60.9523 53.7816 51.7278 55.5102 41.5129 55.5102Z" stroke="#FFB2D6"/>
<circle cx="41.5129" cy="40.5" r="7.22091" stroke="#FFB2D6"/>
</g>
<defs>
<filter id="filter0_f_9223_8299" x="0.341675" y="3.21939" width="82.3424" height="74.5611" filterUnits="userSpaceOnUse" color-interpolation-filters="sRGB">
<feFlood flood-opacity="0" result="BackgroundImageFix"/>
<feBlend mode="normal" in="SourceGraphic" in2="BackgroundImageFix" result="shape"/>
<feGaussianBlur stdDeviation="2" result="effect1_foregroundBlur_9223_8299"/>
</filter>
<filter id="filter1_i_9223_8299" x="4.34167" y="7.21939" width="74.3424" height="70.5611" filterUnits="userSpaceOnUse" color-interpolation-filters="sRGB">
<feFlood flood-opacity="0" result="BackgroundImageFix"/>
<feBlend mode="normal" in="SourceGraphic" in2="BackgroundImageFix" result="shape"/>
<feColorMatrix in="SourceAlpha" type="matrix" values="0 0 0 0 0 0 0 0 0 0 0 0 0 0 0 0 0 0 127 0" result="hardAlpha"/>
<feOffset dy="4"/>
<feGaussianBlur stdDeviation="2"/>
<feComposite in2="hardAlpha" operator="arithmetic" k2="-1" k3="1"/>
<feColorMatrix type="matrix" values="0 0 0 0 1 0 0 0 0 1 0 0 0 0 1 0 0 0 0.25 0"/>
<feBlend mode="normal" in2="shape" result="effect1_innerShadow_9223_8299"/>
</filter>
</defs>
</svg>
