<svg width="89" height="89" viewBox="0 0 89 89" fill="none" xmlns="http://www.w3.org/2000/svg">
<g filter="url(#filter0_f_9223_8290)">
<path d="M5.01294 5H84.0129V84H5.01294V5Z" stroke="#FFB2D6"/>
<path d="M57.8254 70.3633C60.7948 73.1174 63.8059 73.5569 66.1391 73.7712L66.1433 73.7715C68.1724 73.9404 69.7606 73.649 70.9434 73.0296C72.1336 72.4063 72.8854 71.4642 73.2472 70.3972C73.9617 68.2901 73.1387 65.7715 71.4109 64.3053L71.411 64.3052L71.4014 64.2975C70.1933 63.3224 68.6964 62.4634 67.1733 61.6101C67.04 61.5354 66.9065 61.4607 66.7728 61.386C65.3657 60.5993 63.9449 59.805 62.6533 58.8997C59.8366 56.9253 57.7374 54.4973 57.8742 50.66L57.8746 50.6482L57.8745 50.6364C57.8423 47.8535 58.9019 45.549 60.7631 43.889C62.6321 42.2221 65.3402 41.1794 68.6317 41.0017L68.6048 40.5025L68.6317 41.0017C69.8918 40.9336 71.4109 40.9395 72.8895 41.1417C74.2701 41.3306 75.5811 41.6862 76.6108 42.2857V47.5339C73.8203 45.4718 70.0006 44.7598 67.0313 45.3568C65.3873 45.6873 63.935 46.4338 63.0832 47.6541C62.2161 48.8963 62.0368 50.5342 62.76 52.4858L62.7724 52.5193L62.7895 52.5507C63.4608 53.7864 64.5278 54.7184 65.7537 55.5297C66.6756 56.1397 67.7218 56.7023 68.7878 57.2756C69.1305 57.4599 69.4751 57.6453 69.8184 57.8336C72.6672 59.3972 75.5458 61.2353 77.2551 64.6609C78.6909 68.5176 77.8837 71.8919 75.9462 74.4165C74.3526 76.4929 71.1993 77.755 67.6578 78.0149C64.2272 78.2667 60.5566 77.5664 57.8254 75.8812V70.3633ZM40.0054 46.2548V45.7548H39.5054H29.7937V41.5132H54.8738V45.7548H45.1409H44.6409V46.2548V77.4522H40.0054V46.2548Z" stroke="#FFB2D6"/>
</g>
<g filter="url(#filter1_i_9223_8290)">
<path d="M5.01294 5H84.0129V84H5.01294V5Z" stroke="#FFB2D6"/>
<path d="M57.8254 70.3633C60.7948 73.1174 63.8059 73.5569 66.1391 73.7712L66.1433 73.7715C68.1724 73.9404 69.7606 73.649 70.9434 73.0296C72.1336 72.4063 72.8854 71.4642 73.2472 70.3972C73.9617 68.2901 73.1387 65.7715 71.4109 64.3053L71.411 64.3052L71.4014 64.2975C70.1933 63.3224 68.6964 62.4634 67.1733 61.6101C67.04 61.5354 66.9065 61.4607 66.7728 61.386C65.3657 60.5993 63.9449 59.805 62.6533 58.8997C59.8366 56.9253 57.7374 54.4973 57.8742 50.66L57.8746 50.6482L57.8745 50.6364C57.8423 47.8535 58.9019 45.549 60.7631 43.889C62.6321 42.2221 65.3402 41.1794 68.6317 41.0017L68.6048 40.5025L68.6317 41.0017C69.8918 40.9336 71.4109 40.9395 72.8895 41.1417C74.2701 41.3306 75.5811 41.6862 76.6108 42.2857V47.5339C73.8203 45.4718 70.0006 44.7598 67.0313 45.3568C65.3873 45.6873 63.935 46.4338 63.0832 47.6541C62.2161 48.8963 62.0368 50.5342 62.76 52.4858L62.7724 52.5193L62.7895 52.5507C63.4608 53.7864 64.5278 54.7184 65.7537 55.5297C66.6756 56.1397 67.7218 56.7023 68.7878 57.2756C69.1305 57.4599 69.4751 57.6453 69.8184 57.8336C72.6672 59.3972 75.5458 61.2353 77.2551 64.6609C78.6909 68.5176 77.8837 71.8919 75.9462 74.4165C74.3526 76.4929 71.1993 77.755 67.6578 78.0149C64.2272 78.2667 60.5566 77.5664 57.8254 75.8812V70.3633ZM40.0054 46.2548V45.7548H39.5054H29.7937V41.5132H54.8738V45.7548H45.1409H44.6409V46.2548V77.4522H40.0054V46.2548Z" stroke="#FFB2D6"/>
</g>
<defs>
<filter id="filter0_f_9223_8290" x="0.512939" y="0.5" width="88" height="88" filterUnits="userSpaceOnUse" color-interpolation-filters="sRGB">
<feFlood flood-opacity="0" result="BackgroundImageFix"/>
<feBlend mode="normal" in="SourceGraphic" in2="BackgroundImageFix" result="shape"/>
<feGaussianBlur stdDeviation="2" result="effect1_foregroundBlur_9223_8290"/>
</filter>
<filter id="filter1_i_9223_8290" x="4.51294" y="4.5" width="80" height="84" filterUnits="userSpaceOnUse" color-interpolation-filters="sRGB">
<feFlood flood-opacity="0" result="BackgroundImageFix"/>
<feBlend mode="normal" in="SourceGraphic" in2="BackgroundImageFix" result="shape"/>
<feColorMatrix in="SourceAlpha" type="matrix" values="0 0 0 0 0 0 0 0 0 0 0 0 0 0 0 0 0 0 127 0" result="hardAlpha"/>
<feOffset dy="4"/>
<feGaussianBlur stdDeviation="2"/>
<feComposite in2="hardAlpha" operator="arithmetic" k2="-1" k3="1"/>
<feColorMatrix type="matrix" values="0 0 0 0 1 0 0 0 0 1 0 0 0 0 1 0 0 0 0.25 0"/>
<feBlend mode="normal" in2="shape" result="effect1_innerShadow_9223_8290"/>
</filter>
</defs>
</svg>
